<svg version="1.2" xmlns="http://www.w3.org/2000/svg" viewBox="0 0 528 520" width="528" height="520">
	<style>
		.s0 { fill: #000000 } 
	</style>
	<path fill-rule="evenodd" class="s0" d="m396.49 105.86c-52.48 6.38-126.73 31.8-171.12 58.58-19.59 11.82-25.65 19.44-27.99 35.16-1.37 9.24-2.58 12.73-5.27 15.24-2.74 2.55-6.15 2.17-18.29-2.05-10.43-3.62-11.19-3.76-20.05-3.8-8.83-0.03-9.43 0.07-14.56 2.6-2.99 1.47-6.51 3.98-7.99 5.68-2.12 2.47-3.37 3.16-6.46 3.62-4.96 0.73-11.76 2.75-11.76 3.5 0 0.31 2.29 1.39 5.1 2.4 7.67 2.75 11.7 5.69 17.29 12.64 2.79 3.47 8.56 9.9 12.83 14.29 4.26 4.41 8.01 8.84 8.34 9.87 0.74 2.41-1.96 5.35-7.77 8.45-8.85 4.72-11.53 9.47-10.76 19.07 1.39 17.36 16.23 41.55 40.38 65.85 20.61 20.74 45.83 39.2 70.19 51.37 10.21 5.11 21.25 9.84 21.76 9.34 0.22-0.22-3.86-6.8-9.05-14.61-5.2-7.83-11.52-18.24-14.04-23.16-2.53-4.92-10.07-18.04-16.76-29.15-6.7-11.12-12.84-21.67-13.65-23.44-2.22-4.9-1.94-7.47 1.1-10.07 1.43-1.21 5.36-4.56 8.72-7.44l6.13-5.24 8.27 1.49q7.87 1.4 15.75 2.71c8.97 1.46 13.7 3.66 23.07 10.69 21.58 16.2 40.19 32.3 71.41 61.79 18.37 17.34 21.62 20.23 22.2 19.66 0.72-0.72-6.39-10.75-16.17-22.83-28.93-35.72-30.01-37.18-35.31-48.39-1.93-4.06-3.5-7.66-3.5-8.01 0-1.01 19.16 0.3 29.02 1.98 4.97 0.85 21.43 4.64 36.59 8.41 15.15 3.77 28.45 6.75 29.55 6.62 3.94-0.47-2.58-3.26-48.38-20.75-37.82-14.43-57.44-22.39-69.58-28.22l-10.39-4.99-12.72-13.05-12.71-13.06 1.92-1.2c7.33-4.61 13.38-15.28 17.94-31.67 6.02-21.61 5.81-21.09 9.79-25.34 2.18-2.33 10.87-8.72 20.95-15.43 21.01-13.96 31.29-22.16 42.87-34.17 6.25-6.48 11.34-10.85 17.25-14.81 10.88-7.3 19.32-14.08 28.46-22.89 6.73-6.46 8.48-8.63 6.8-8.39-0.33 0.05-4.56 0.57-9.4 1.15z"/>
</svg>