<svg version="1.2" xmlns="http://www.w3.org/2000/svg" viewBox="0 0 400 400" width="400" height="400">
	<style>
		.s0 { fill: #b89a6a } 
	</style>
	<path fill-rule="evenodd" class="s0" d="m332.31 45.86c-52.47 6.38-126.7 31.8-171.07 58.58-19.59 11.83-25.65 19.44-27.99 35.17-1.38 9.23-2.58 12.73-5.27 15.23-2.74 2.55-6.15 2.17-18.29-2.04-10.42-3.62-11.18-3.77-20.04-3.8-8.83-0.04-9.43 0.07-14.56 2.59-2.99 1.47-6.51 3.98-7.98 5.69-2.12 2.46-3.37 3.16-6.46 3.62-4.96 0.73-11.76 2.75-11.76 3.49 0 0.32 2.29 1.4 5.1 2.41 7.67 2.75 11.7 5.69 17.29 12.64 2.79 3.47 8.56 9.9 12.82 14.29 4.26 4.4 8.01 8.84 8.34 9.87 0.74 2.41-1.96 5.35-7.77 8.45-8.85 4.72-11.53 9.47-10.76 19.07 1.39 17.35 16.23 41.55 40.38 65.85 20.6 20.74 45.81 39.2 70.17 51.37 10.21 5.11 21.24 9.85 21.75 9.34 0.22-0.22-3.86-6.79-9.05-14.61-5.2-7.82-11.51-18.24-14.04-23.16-2.52-4.92-10.06-18.04-16.76-29.15-6.69-11.12-12.82-21.67-13.63-23.44-2.23-4.9-1.95-7.47 1.09-10.06 1.44-1.22 5.36-4.57 8.73-7.45l6.12-5.24 8.27 1.49q7.86 1.4 15.74 2.71c8.98 1.46 13.7 3.65 23.06 10.69 21.59 16.2 40.19 32.3 71.4 61.79 18.36 17.35 21.62 20.23 22.19 19.66 0.72-0.72-6.38-10.75-16.16-22.83-28.93-35.72-30-37.18-35.31-48.39-1.92-4.06-3.5-7.67-3.5-8.01 0-1.01 19.17 0.29 29.01 1.98 4.98 0.85 21.44 4.63 36.59 8.41 15.15 3.77 28.44 6.75 29.54 6.62 3.94-0.47-2.58-3.26-48.36-20.75-37.81-14.43-57.43-22.39-69.56-28.22l-10.4-4.99-12.71-13.05-12.71-13.06 1.92-1.21c7.33-4.61 13.38-15.28 17.94-31.66 6.02-21.62 5.81-21.09 9.79-25.34 2.18-2.34 10.86-8.73 20.93-15.43 21.01-13.97 31.29-22.16 42.87-34.17 6.25-6.48 11.34-10.85 17.24-14.82 10.88-7.3 19.32-14.08 28.46-22.88 6.73-6.47 8.48-8.64 6.8-8.4-0.34 0.05-4.56 0.57-9.4 1.15z"/>
</svg>